# xmcd
#
# Track frame offsets:
#	150
#	38348
#	49096
#	56228
#	57845
#	64081
#	72428
#	79905
#	89673
#	94190
#	99011
#	103380
#	107939
#	110732
#	113440
#	114477
#	121613
#	128542
#	135604
#	141845
#	144503
#	148733
#	150767
#	152519
#	156129
#	158939
#	163238
#	164373
#	170061
#	175094
#	179599
#	184507
#	191107
#	197834
#	202653
#	205060
#	209612
#	212988
#	216322
#	218182
#	234546
#
# Disc length: 3204 seconds
#
# Revision: 1
# Processed by: cddbd v1.5.1PL0 Copyright (c) Steve Scherf et al.
# Submitted via: CDex 1.50Beta5
#
DISCID=5d0c8229
DTITLE=おお - 英語CD
DYEAR=1900
DGENRE=
TTITLE0=お
TTITLE1=お
TTITLE2=お
TTITLE3=お
TTITLE4=お
TTITLE5=お
TTITLE6=お
TTITLE7=お
TTITLE8=お
TTITLE9=お
TTITLE10=お
TTITLE11=お
TTITLE12=お
TTITLE13=お
TTITLE14=お
TTITLE15=お
TTITLE16=お
TTITLE17=おお
TTITLE18=お
TTITLE19=お
TTITLE20=お
TTITLE21=お
TTITLE22=おお
TTITLE23=おお
TTITLE24=お
TTITLE25=おお
TTITLE26=おお
TTITLE27=お
TTITLE28=お
TTITLE29=おお
TTITLE30=お
TTITLE31=おお
TTITLE32=おお
TTITLE33=お
TTITLE34=お
TTITLE35=お
TTITLE36=お
TTITLE37=お
TTITLE38=お
TTITLE39=お
TTITLE40=お
EXTD=
EXTT0=
EXTT1=
EXTT2=
EXTT3=
EXTT4=
EXTT5=
EXTT6=
EXTT7=
EXTT8=
EXTT9=
EXTT10=
EXTT11=
EXTT12=
EXTT13=
EXTT14=
EXTT15=
EXTT16=
EXTT17=
EXTT18=
EXTT19=
EXTT20=
EXTT21=
EXTT22=
EXTT23=
EXTT24=
EXTT25=
EXTT26=
EXTT27=
EXTT28=
EXTT29=
EXTT30=
EXTT31=
EXTT32=
EXTT33=
EXTT34=
EXTT35=
EXTT36=
EXTT37=
EXTT38=
EXTT39=
EXTT40=
PLAYORDER=
